<svg id="delete-button" xmlns="http://www.w3.org/2000/svg" width="24" height="24" viewBox="0 0 24 24">
  <g id="Group_3660" data-name="Group 3660">
    <path id="Path_2947" data-name="Path 2947" d="M5.841,18,3.535,14h0a4,4,0,0,1,0-4L5.842,6h0A4,4,0,0,1,9.307,4h5.386a4,4,0,0,1,3.466,2l2.306,4h0a4,4,0,0,1,0,4l-2.307,4h0a4,4,0,0,1-3.465,2H9.307a4,4,0,0,1-3.466-2Z" fill="none" stroke="#dc3f82" stroke-width="1.5"/>
    <line id="Line_129" data-name="Line 129" y1="5" x2="5" transform="translate(9.5 9.5)" fill="none" stroke="#dc3f82" stroke-linecap="round" stroke-linejoin="round" stroke-width="1.5"/>
    <line id="Line_130" data-name="Line 130" x1="5" y1="5" transform="translate(9.5 9.5)" fill="none" stroke="#dc3f82" stroke-linecap="round" stroke-linejoin="round" stroke-width="1.5"/>
  </g>
  <path id="Path_2948" data-name="Path 2948" d="M0,0H24V24H0Z" fill="none"/>
</svg>
